<?xml version="1.0" encoding="UTF-8"?>
<svg width="29px" height="34px" viewBox="0 0 29 34" version="1.1" xmlns="http://www.w3.org/2000/svg" xmlns:xlink="http://www.w3.org/1999/xlink">
    <!-- Generator: Sketch 53 (72520) - https://sketchapp.com -->
    <title>Polluxui</title>
    <desc>Created with Sketch.</desc>
    <g id="Dashboard" stroke="none" stroke-width="1" fill="none" fill-rule="evenodd">
        <g id="PolluxUI_dashboard" transform="translate(-31.000000, -17.000000)" fill="#FFFFFF" fill-rule="nonzero">
            <g id="Group">
                <g id="Group-2">
                    <g id="Logo" transform="translate(31.000000, 17.000000)">
                        <g id="Polluxui">
                            <path d="M7.49397732,2.99977945 C6.74302902,3.01402476 5.9817655,2.33635499 6.00033291,1.49995176 C6.01890031,0.606567292 6.70176813,-0.0100511473 7.51048168,0.000124074453 C8.36664526,0.0102992962 8.99793696,0.6574434 9,1.49384663 C9,2.32414473 8.3872757,2.96721874 7.49397732,2.99977945 Z" id="Path"></path>
                            <path d="M28.8532446,17.7327629 C28.754386,17.1677441 28.6102173,16.6068049 28.4598699,16.051985 C28.2003662,15.0973685 27.8317062,14.1815077 27.2900437,13.3492779 C26.9852299,12.8801288 26.6557013,12.4150592 26.2664458,12.019342 C25.9039644,11.650142 25.4693987,11.3400956 25.0286543,11.0606459 C24.3098703,10.6057752 23.5025254,10.3813995 22.6498704,10.340604 C22.3409374,10.3263255 22.0320045,10.3202062 21.725131,10.3426437 C21.3605901,10.3712006 20.9960492,10.4262747 20.6335679,10.4854283 C20.0857267,10.5751785 19.5420047,10.709804 18.9900444,10.764878 C18.5781338,10.8056736 18.1538658,10.764878 17.7378361,10.7322415 C17.1879354,10.6894062 16.6792258,10.4956272 16.2117072,10.2120979 C15.7174144,9.91225038 15.313742,9.51449349 14.9594989,9.05962278 C14.6279108,8.63738854 14.2695485,8.23555209 13.9235436,7.82555652 C13.4972161,7.31969134 13.0132211,6.88317864 12.4241889,6.56497313 C11.3964719,6.01219303 10.2925514,5.9183632 9.16185666,6.05706817 C8.38746467,6.15293778 7.64808508,6.40587037 6.94371789,6.74039412 C6.11577751,7.13203167 5.37021926,7.65625486 4.69056671,8.26002943 C4.06446255,8.81688909 3.48366855,9.42678299 2.98525668,10.1019498 C2.10170837,11.3054194 1.41175806,12.6108779 0.919524847,14.0162856 C0.579698572,14.9851806 0.309897106,15.9703939 0.198681235,16.9923231 C0.116299108,17.7511209 0.04009564,18.5119584 0.00508323598,19.2748358 C-0.0155122958,19.7378656 0.0297978741,20.204975 0.0812867035,20.6680048 C0.155430618,21.3186943 0.241931851,21.9714235 0.359326382,22.6159937 C0.569400806,23.766429 0.940120378,24.874029 1.45912778,25.9224754 C1.81337093,26.636398 2.21292424,27.3360422 2.66808549,27.9887714 C3.11912764,28.6353814 3.63813504,29.2432355 4.18597619,29.8143736 C4.63289922,30.281483 5.15190663,30.6853592 5.66061626,31.0892354 C6.76659632,31.9704199 8.01056643,32.6272288 9.33485913,33.1147359 C10.9104173,33.6940332 12.5498216,33.981642 14.2407148,34 C14.866819,33.9469657 15.4949827,33.9122895 16.1169677,33.8347779 C16.6606898,33.7654254 17.2064714,33.6777149 17.7378361,33.5451293 C18.8870668,33.2595602 19.9889277,32.837326 21.0372403,32.2804663 C22.1143866,31.7093282 23.1070912,31.0219227 24.0009373,30.2039714 C24.5261234,29.7225835 25.0059993,29.1881615 25.4858751,28.6598587 C26.0852051,28.0010101 26.5856765,27.272809 27.0346591,26.5058521 C27.5619047,25.6042698 28.0047087,24.6720909 28.3218799,23.6766787 C28.6740635,22.5711185 28.8964952,21.4390412 28.9726987,20.2845263 C29.0303662,19.4359783 28.9994729,18.5772314 28.8532446,17.7327629 Z M20.0115828,18.1142015 L20.0115828,20.9535738 L16.2673151,20.9535738 L16.2673151,18.1142015 L12.7331219,18.1142015 L12.7331219,21.3594898 L16.2693747,21.3594898 L16.2693747,25.0086544 L12.7331219,25.0086544 L12.7331219,28.2539427 L8.98885419,28.2539427 L8.98885419,14.465037 L12.7331219,14.465037 L20.0115828,14.465037 L20.0115828,18.1142015 Z" id="Shape"></path>
                        </g>
                    </g>
                </g>
            </g>
        </g>
    </g>
</svg>