<?xml version="1.0" encoding="UTF-8"?>
<svg width="117px" height="34px" viewBox="0 0 117 34" version="1.1" xmlns="http://www.w3.org/2000/svg" xmlns:xlink="http://www.w3.org/1999/xlink">
    <!-- Generator: Sketch 53 (72520) - https://sketchapp.com -->
    <title>Logo</title>
    <desc>Created with Sketch.</desc>
    <g id="Dashboard" stroke="none" stroke-width="1" fill="none" fill-rule="evenodd">
        <g id="Logo" fill="#FFFFFF" fill-rule="nonzero">
            <path d="M39.4,27 L39.4,13.2 C40.6400062,13.0799994 42.3866554,13.02 44.64,13.02 C46.573343,13.02 47.8966631,13.3333302 48.61,13.96 C49.3233369,14.5866698 49.68,15.7733246 49.68,17.52 C49.68,19.2666754 49.3433367,20.4566635 48.67,21.09 C47.9966633,21.7233365 46.7866754,22.04 45.04,22.04 C44.1599956,22.04 43.2933376,21.9866672 42.44,21.88 L42.44,27 L39.4,27 Z M42.44,19.7 L44.58,19.7 C45.3666706,19.6866666 45.9033319,19.5333348 46.19,19.24 C46.4766681,18.9466652 46.62,18.3733376 46.62,17.52 C46.62,16.6666624 46.4766681,16.0933348 46.19,15.8 C45.9033319,15.5066652 45.3666706,15.36 44.58,15.36 L42.44,15.38 L42.44,19.7 Z M56.08,16.86 C57.9200092,16.86 59.2233295,17.2566627 59.99,18.05 C60.7566705,18.8433373 61.14,20.1866572 61.14,22.08 C61.14,23.9733428 60.7566705,25.3099961 59.99,26.09 C59.2233295,26.8700039 57.9200092,27.26 56.08,27.26 C54.2266574,27.26 52.9166705,26.8700039 52.15,26.09 C51.3833295,25.3099961 51,23.9733428 51,22.08 C51,20.1733238 51.3833295,18.8266706 52.15,18.04 C52.9166705,17.2533294 54.2266574,16.86 56.08,16.86 Z M56.08,19.08 C55.2933294,19.08 54.766668,19.279998 54.5,19.68 C54.233332,20.080002 54.1,20.879994 54.1,22.08 C54.1,23.2533392 54.233332,24.039998 54.5,24.44 C54.766668,24.840002 55.2933294,25.04 56.08,25.04 C56.8400038,25.04 57.3566653,24.840002 57.63,24.44 C57.9033347,24.039998 58.04,23.2533392 58.04,22.08 C58.04,20.8933274 57.906668,20.0966687 57.64,19.69 C57.373332,19.2833313 56.8533372,19.08 56.08,19.08 Z M66.12,13 L66.12,23.78 C66.12,24.44667 66.4933296,24.78 67.24,24.78 L68.04,24.78 L68.38,26.84 C67.8733308,27.106668 67.086672,27.24 66.02,27.24 C65.1399956,27.24 64.4466692,27.0033357 63.94,26.53 C63.4333308,26.0566643 63.18,25.386671 63.18,24.52 L63.18,13 L66.12,13 Z M72.66,13 L72.66,23.78 C72.66,24.44667 73.0333296,24.78 73.78,24.78 L74.58,24.78 L74.92,26.84 C74.4133308,27.106668 73.626672,27.24 72.56,27.24 C71.6799956,27.24 70.9866692,27.0033357 70.48,26.53 C69.9733308,26.0566643 69.72,25.386671 69.72,24.52 L69.72,13 L72.66,13 Z M85.6,17.14 L85.6,27 L83.26,27 L83.04,25.64 C81.6799932,26.7200054 80.3200068,27.26 78.96,27.26 C77.1066574,27.26 76.18,26.3466758 76.18,24.52 L76.18,17.14 L79.14,17.14 L79.14,23.62 C79.1266666,24.0466688 79.1999992,24.3466658 79.36,24.52 C79.5200008,24.6933342 79.799998,24.78 80.2,24.78 C80.7733362,24.78 81.593328,24.5066694 82.66,23.96 L82.66,17.14 L85.6,17.14 Z M92.52,22.86 L92.4,22.86 L90.06,27 L87.02,27 L90.06,21.94 L87.24,17.14 L90.26,17.14 L92.36,20.94 L92.56,20.94 L94.66,17.14 L97.68,17.14 L94.86,21.94 L97.9,27 L94.86,27 L92.52,22.86 Z M110.44,13.2 L110.44,21.5 C110.44,23.6066772 110.036671,25.093329 109.23,25.96 C108.423329,26.826671 107.033343,27.26 105.06,27.26 C102.97999,27.26 101.516671,26.826671 100.67,25.96 C99.8233291,25.093329 99.4,23.6066772 99.4,21.5 L99.4,13.2 L102.44,13.2 L102.44,21.5 C102.44,22.766673 102.616665,23.633331 102.97,24.1 C103.323335,24.566669 103.973329,24.8 104.92,24.8 C105.853338,24.8 106.496665,24.566669 106.85,24.1 C107.203335,23.633331 107.38,22.766673 107.38,21.5 L107.38,13.2 L110.44,13.2 Z M116.16,27 L113.12,27 L113.12,13.2 L116.16,13.2 L116.16,27 Z" id="PolluxUI"></path>
            <g id="Polluxui">
                <path d="M7.49397732,2.99977945 C6.74302902,3.01402476 5.9817655,2.33635499 6.00033291,1.49995176 C6.01890031,0.606567292 6.70176813,-0.0100511473 7.51048168,0.000124074453 C8.36664526,0.0102992962 8.99793696,0.6574434 9,1.49384663 C9,2.32414473 8.3872757,2.96721874 7.49397732,2.99977945 Z" id="Path"></path>
                <path d="M28.8532446,17.7327629 C28.754386,17.1677441 28.6102173,16.6068049 28.4598699,16.051985 C28.2003662,15.0973685 27.8317062,14.1815077 27.2900437,13.3492779 C26.9852299,12.8801288 26.6557013,12.4150592 26.2664458,12.019342 C25.9039644,11.650142 25.4693987,11.3400956 25.0286543,11.0606459 C24.3098703,10.6057752 23.5025254,10.3813995 22.6498704,10.340604 C22.3409374,10.3263255 22.0320045,10.3202062 21.725131,10.3426437 C21.3605901,10.3712006 20.9960492,10.4262747 20.6335679,10.4854283 C20.0857267,10.5751785 19.5420047,10.709804 18.9900444,10.764878 C18.5781338,10.8056736 18.1538658,10.764878 17.7378361,10.7322415 C17.1879354,10.6894062 16.6792258,10.4956272 16.2117072,10.2120979 C15.7174144,9.91225038 15.313742,9.51449349 14.9594989,9.05962278 C14.6279108,8.63738854 14.2695485,8.23555209 13.9235436,7.82555652 C13.4972161,7.31969134 13.0132211,6.88317864 12.4241889,6.56497313 C11.3964719,6.01219303 10.2925514,5.9183632 9.16185666,6.05706817 C8.38746467,6.15293778 7.64808508,6.40587037 6.94371789,6.74039412 C6.11577751,7.13203167 5.37021926,7.65625486 4.69056671,8.26002943 C4.06446255,8.81688909 3.48366855,9.42678299 2.98525668,10.1019498 C2.10170837,11.3054194 1.41175806,12.6108779 0.919524847,14.0162856 C0.579698572,14.9851806 0.309897106,15.9703939 0.198681235,16.9923231 C0.116299108,17.7511209 0.04009564,18.5119584 0.00508323598,19.2748358 C-0.0155122958,19.7378656 0.0297978741,20.204975 0.0812867035,20.6680048 C0.155430618,21.3186943 0.241931851,21.9714235 0.359326382,22.6159937 C0.569400806,23.766429 0.940120378,24.874029 1.45912778,25.9224754 C1.81337093,26.636398 2.21292424,27.3360422 2.66808549,27.9887714 C3.11912764,28.6353814 3.63813504,29.2432355 4.18597619,29.8143736 C4.63289922,30.281483 5.15190663,30.6853592 5.66061626,31.0892354 C6.76659632,31.9704199 8.01056643,32.6272288 9.33485913,33.1147359 C10.9104173,33.6940332 12.5498216,33.981642 14.2407148,34 C14.866819,33.9469657 15.4949827,33.9122895 16.1169677,33.8347779 C16.6606898,33.7654254 17.2064714,33.6777149 17.7378361,33.5451293 C18.8870668,33.2595602 19.9889277,32.837326 21.0372403,32.2804663 C22.1143866,31.7093282 23.1070912,31.0219227 24.0009373,30.2039714 C24.5261234,29.7225835 25.0059993,29.1881615 25.4858751,28.6598587 C26.0852051,28.0010101 26.5856765,27.272809 27.0346591,26.5058521 C27.5619047,25.6042698 28.0047087,24.6720909 28.3218799,23.6766787 C28.6740635,22.5711185 28.8964952,21.4390412 28.9726987,20.2845263 C29.0303662,19.4359783 28.9994729,18.5772314 28.8532446,17.7327629 Z M20.0115828,18.1142015 L20.0115828,20.9535738 L16.2673151,20.9535738 L16.2673151,18.1142015 L12.7331219,18.1142015 L12.7331219,21.3594898 L16.2693747,21.3594898 L16.2693747,25.0086544 L12.7331219,25.0086544 L12.7331219,28.2539427 L8.98885419,28.2539427 L8.98885419,14.465037 L12.7331219,14.465037 L20.0115828,14.465037 L20.0115828,18.1142015 Z" id="Shape"></path>
            </g>
        </g>
    </g>
</svg>